# xmcd
#
# Track frame offsets:
#	150
#	26097
#	50465
#	72426
#	89929
#	108364
#	128664
#	151728
#	171623
#	192747
#	214242
#	235628
#	256576
#	275467
#	297089
#
# Disc length: 4228 seconds
#
# Revision: 0
# Processed by: cddbd v1.5.2PL0 Copyright (c) Steve Scherf et al.
# Submitted via: EasyCDDAExtractor 15.3.0.1
#
DISCID=e010820f
DTITLE=Luis Enrique - Tesoros De Coleccion - CD 1
DYEAR=2007
DGENRE=Latin
TTITLE0=Amor De Medianoche
TTITLE1=Comprendelo
TTITLE2=Amor Y Alegria
TTITLE3=Desesperado
TTITLE4=No Te Quites La Ropa
TTITLE5=Tu No Le Amas Le Temes
TTITLE6=Volverte A Ver
TTITLE7=Tu Cuerpo
TTITLE8=Lo Que Paso Entre Tu Y Yo... Paso
TTITLE9=Mi Mundo
TTITLE10=Solo
TTITLE11=Corazon Loco
TTITLE12=San Juan Sin Ti
TTITLE13=Aventura
TTITLE14=Esta Vez
EXTD=
EXTT0=
EXTT1=
EXTT2=
EXTT3=
EXTT4=
EXTT5=
EXTT6=
EXTT7=
EXTT8=
EXTT9=
EXTT10=
EXTT11=
EXTT12=
EXTT13=
EXTT14=
PLAYORDER=
